<svg xmlns="http://www.w3.org/2000/svg" width="256" height="256" viewBox="0 0 256 256"><defs><linearGradient id="g" x1="0" y1="0" x2="1" y2="1"><stop stop-color="#fff9df"/><stop offset=".52" stop-color="#ffb4c8"/><stop offset="1" stop-color="#68405f"/></linearGradient><filter id="s" x="-30%" y="-30%" width="160%" height="160%"><feGaussianBlur stdDeviation="4" result="b"/><feMerge><feMergeNode in="b"/><feMergeNode in="SourceGraphic"/></feMerge></filter></defs><circle cx="128" cy="128" r="91" fill="#ffb4c8" opacity=".12"/><g fill="url(#g)" stroke="#291832" stroke-width="6" stroke-linejoin="round" filter="url(#s)"><path d="M43 91h63l11 59 28 18c12 8 7 28-8 31H43c-15 0-22-18-12-29l21-22z"/><path d="M139 91h63l2 57 21 22c10 11 3 29-12 29h-94c-15-3-20-23-8-31l28-18z"/></g><path d="M45 173h86M125 173h86" stroke="#fff8df" stroke-width="6"/><circle cx="77" cy="119" r="7" fill="#ff6f91"/><circle cx="175" cy="119" r="7" fill="#ff6f91"/></svg>