<svg xmlns="http://www.w3.org/2000/svg" width="256" height="256" viewBox="0 0 256 256"><defs><linearGradient id="g" x1="0" y1="0" x2="1" y2="1"><stop stop-color="#fff1a0"/><stop offset=".36" stop-color="#7ce9ff"/><stop offset=".68" stop-color="#6650d8"/><stop offset="1" stop-color="#241738"/></linearGradient><filter id="s" x="-40%" y="-40%" width="180%" height="180%"><feGaussianBlur stdDeviation="7" result="b"/><feMerge><feMergeNode in="b"/><feMergeNode in="SourceGraphic"/></feMerge></filter></defs><circle cx="128" cy="128" r="99" fill="#6d5de8" opacity=".18"/><path d="M33 48h32M49 32v32M192 33h22M203 22v22" stroke="#fff1a0" stroke-width="5" stroke-linecap="round"/><g fill="url(#g)" stroke="#291832" stroke-width="6" stroke-linejoin="round" filter="url(#s)"><path d="M49 54h66l1 84 37 23c15 9 9 34-10 37H37c-18 0-25-23-10-35l30-27z"/><path d="M141 54h66l-8 82 30 27c15 12 8 35-10 35H113c-19-3-25-28-10-37l37-23z"/><path d="M44 116L5 80l17 48-18 16 51 22M212 116l39-36-17 48 18 16-51 22"/></g><path d="M33 218c59 25 131 25 190 0" fill="none" stroke="#fff1a0" stroke-width="7" stroke-linecap="round"/></svg>