<svg xmlns="http://www.w3.org/2000/svg" width="256" height="256" viewBox="0 0 256 256">
  <defs><linearGradient id="b" x1="0" y1="0" x2="1" y2="1"><stop stop-color="#76e6f2"/><stop offset="1" stop-color="#297ac6"/></linearGradient><linearGradient id="r" x1="0" y1="0" x2="0" y2="1"><stop stop-color="#ff91bc"/><stop offset="1" stop-color="#db376f"/></linearGradient><filter id="s"><feDropShadow dy="8" stdDeviation="7" flood-color="#181631" flood-opacity=".5"/></filter></defs>
  <g stroke="#2b1937" stroke-width="11" stroke-linejoin="round">
    <path fill="url(#b)" d="M39 101h178v116H39z"/><path fill="#a8f5f2" d="M29 78h198v42H29z"/>
    <path fill="url(#r)" d="M108 78h40v139h-40z"/>
    <path fill="#ffaccb" d="M127 79C93 69 72 48 83 32c13-18 42 3 45 47zm2 0c34-10 55-31 44-47-13-18-42 3-44 47z"/>
    <circle cx="128" cy="159" r="27" fill="#ffd36a"/>
    <path fill="#fff2b2" d="M128 139l6 12 14 2-10 10 2 14-12-7-12 7 2-14-10-10 14-2z" stroke-width="6"/>
    <path d="M54 134h36" stroke="#e7ffff" stroke-width="8" stroke-linecap="round" opacity=".65"/>
  </g>
</svg>
