<svg xmlns="http://www.w3.org/2000/svg" viewBox="0 0 256 256">
  <defs><linearGradient id="i" x1="0" y1="0" x2="1" y2="1"><stop stop-color="#ecffff"/><stop offset=".5" stop-color="#8de4ff"/><stop offset="1" stop-color="#587bdc"/></linearGradient><filter id="s"><feDropShadow dy="8" stdDeviation="7" flood-color="#243263" flood-opacity=".52"/></filter></defs>
  <g filter="url(#s)" stroke="#252447" stroke-width="11" stroke-linejoin="round">
    <path fill="url(#i)" d="M128 35c13 0 22 9 22 22v10c36 10 52 46 52 92l20 27H34l20-27c0-46 16-82 52-92V57c0-13 9-22 22-22z"/>
    <path fill="#e9ffff" d="M91 186h74c-4 26-17 38-37 38s-33-12-37-38z"/>
    <path d="M82 145c6-33 21-50 45-54" fill="none" stroke="#fff" stroke-width="10" stroke-linecap="round" opacity=".72"/>
    <path d="M128 96v64M100 112l56 32m0-32-56 32" fill="none" stroke="#f8ffff" stroke-width="7" stroke-linecap="round"/>
    <circle cx="128" cy="187" r="12" fill="#70a8e8"/>
  </g>
</svg>
